<?xml version="1.0" standalone="no"?>
<!DOCTYPE svg PUBLIC "-//W3C//DTD SVG 20010904//EN"
 "http://www.w3.org/TR/2001/REC-SVG-20010904/DTD/svg10.dtd">
<svg version="1.0" xmlns="http://www.w3.org/2000/svg"
 width="258.000000pt" height="108.000000pt" viewBox="0 0 258.000000 108.000000"
 preserveAspectRatio="xMidYMid meet">

<g transform="translate(0.000000,108.000000) scale(0.100000,-0.100000)"
fill="#000000" stroke="none">
<path d="M2017 1019 c-115 -27 -180 -113 -163 -217 12 -74 68 -115 206 -147
94 -22 130 -40 130 -65 0 -64 -141 -67 -282 -6 -14 6 -22 -3 -43 -50 -14 -32
-22 -61 -17 -66 18 -18 127 -49 195 -54 181 -16 307 63 307 190 0 95 -51 139
-205 177 -133 32 -159 55 -115 99 25 25 115 27 175 4 68 -27 74 -25 100 37
l23 57 -37 16 c-74 33 -194 44 -274 25z"/>
<path d="M100 721 l0 -301 85 0 85 0 0 79 0 78 98 5 c114 6 171 27 219 81 94
107 56 270 -77 331 -39 18 -69 21 -227 24 l-183 4 0 -301z m329 154 c16 -8 31
-22 35 -30 12 -32 6 -83 -13 -106 -17 -21 -30 -24 -100 -27 l-81 -4 0 91 0 91
65 0 c38 0 78 -6 94 -15z"/>
<path d="M810 721 l0 -301 80 0 80 0 0 80 0 80 50 0 50 0 52 -80 53 -80 89 0
88 0 -18 28 c-9 15 -37 56 -61 92 l-43 65 35 29 c57 45 78 97 73 176 -5 91
-38 142 -116 178 -54 25 -67 27 -234 30 l-178 4 0 -301z m337 145 c22 -19 28
-32 28 -66 0 -34 -6 -47 -28 -66 -24 -21 -38 -24 -103 -24 l-74 0 0 90 0 90
74 0 c65 0 79 -3 103 -24z"/>
<path d="M1520 720 l0 -300 80 0 80 0 0 300 0 300 -80 0 -80 0 0 -300z"/>
<path d="M40 135 l0 -75 950 0 950 0 0 75 0 75 -950 0 -950 0 0 -75z"/>
<path d="M2062 148 c-2 -49 1 -59 19 -68 30 -16 68 -4 79 26 13 33 13 94 0 94
-5 0 -10 -22 -10 -50 0 -38 -4 -52 -19 -60 -40 -21 -56 -1 -64 80 -2 22 -4 14
-5 -22z"/>
<path d="M2267 138 c-26 -59 -31 -92 -7 -49 15 29 76 30 85 1 3 -11 10 -20 15
-20 11 0 1 30 -30 90 -11 22 -24 40 -29 40 -4 0 -20 -28 -34 -62z m63 -10 c0
-5 -14 -8 -30 -8 l-31 0 17 32 16 32 14 -25 c7 -13 13 -27 14 -31z"/>
<path d="M2440 135 l0 -65 48 2 c43 1 44 2 10 5 l-38 4 0 60 c0 33 -4 59 -10
59 -6 0 -10 -28 -10 -65z"/>
</g>
</svg>
